<?xml version="1.0" encoding="us-ascii" standalone="no"?><svg xmlns="http://www.w3.org/2000/svg" xmlns:xlink="http://www.w3.org/1999/xlink" contentStyleType="text/css" height="555px" preserveAspectRatio="none" style="width:533px;height:555px;background:#FFFFFF;" version="1.1" viewBox="0 0 533 555" width="533px" zoomAndPan="magnify"><defs/><g><ellipse cx="265" cy="20" fill="#222222" rx="10" ry="10" style="stroke:#222222;stroke-width:1.0;"/><rect fill="#F1F1F1" height="54.7522" rx="12.5" ry="12.5" style="stroke:#181818;stroke-width:0.5;" width="212" x="159" y="94"/><text fill="#000000" font-family="Noto Sans CJK JP" font-size="12" lengthAdjust="spacing" textLength="192" x="169" y="117.9201">&#12510;&#12493;&#12540;&#12472;&#12515;&#12540;&#12364;&#28204;&#23450;&#35352;&#37682;&#32080;&#26524;&#12434;&#20837;&#21147;</text><text fill="#000000" font-family="Noto Sans CJK JP" font-size="12" lengthAdjust="spacing" textLength="132" x="169" y="135.2962">&#25215;&#35469;&#12501;&#12525;&#12540;&#12364;&#30330;&#34892;&#12373;&#12428;&#12427;</text><rect fill="#F1F1F1" height="54.7522" rx="12.5" ry="12.5" style="stroke:#181818;stroke-width:0.5;" width="140" x="195" y="168.7522"/><text fill="#000000" font-family="Noto Sans CJK JP" font-size="12" lengthAdjust="spacing" textLength="120" x="205" y="192.6723">&#28204;&#23450;&#12398;&#23550;&#35937;&#37096;&#21729;&#12395;&#36890;&#30693;</text><text fill="#000000" font-family="Noto Sans CJK JP" font-size="12" lengthAdjust="spacing" textLength="96" x="205" y="210.0485">&#37096;&#21729;&#12364;&#35352;&#37682;&#12434;&#30906;&#35469;</text><polygon fill="#F1F1F1" points="235,243.5045,295,243.5045,307,255.5045,295,267.5045,235,267.5045,223,255.5045,235,243.5045" style="stroke:#181818;stroke-width:0.5;"/><text fill="#000000" font-family="Noto Sans CJK JP" font-size="11" lengthAdjust="spacing" textLength="60" x="235" y="260.3005">&#37096;&#21729;&#12398;&#25215;&#35469;?</text><text fill="#000000" font-family="Noto Sans CJK JP" font-size="11" lengthAdjust="spacing" textLength="22" x="201" y="252.3365">&#12399;&#12356;</text><text fill="#000000" font-family="Noto Sans CJK JP" font-size="11" lengthAdjust="spacing" textLength="33" x="307" y="252.3365">&#12356;&#12356;&#12360;</text><rect fill="#F1F1F1" height="54.7522" rx="12.5" ry="12.5" style="stroke:#181818;stroke-width:0.5;" width="128" x="61" y="277.5045"/><text fill="#000000" font-family="Noto Sans CJK JP" font-size="12" lengthAdjust="spacing" textLength="72" x="71" y="301.4246">&#12467;&#12540;&#12481;&#12395;&#36890;&#30693;</text><text fill="#000000" font-family="Noto Sans CJK JP" font-size="12" lengthAdjust="spacing" textLength="108" x="71" y="318.8007">&#12467;&#12540;&#12481;&#12364;&#35352;&#37682;&#12434;&#30906;&#35469;</text><polygon fill="#F1F1F1" points="89.5,352.2567,160.5,352.2567,172.5,364.2567,160.5,376.2567,89.5,376.2567,77.5,364.2567,89.5,352.2567" style="stroke:#181818;stroke-width:0.5;"/><text fill="#000000" font-family="Noto Sans CJK JP" font-size="11" lengthAdjust="spacing" textLength="71" x="89.5" y="369.0527">&#12467;&#12540;&#12481;&#12398;&#25215;&#35469;?</text><text fill="#000000" font-family="Noto Sans CJK JP" font-size="11" lengthAdjust="spacing" textLength="22" x="55.5" y="361.0888">&#12399;&#12356;</text><text fill="#000000" font-family="Noto Sans CJK JP" font-size="11" lengthAdjust="spacing" textLength="33" x="172.5" y="361.0888">&#12356;&#12356;&#12360;</text><rect fill="#F1F1F1" height="37.3761" rx="12.5" ry="12.5" style="stroke:#181818;stroke-width:0.5;" width="80" x="11" y="386.2567"/><text fill="#000000" font-family="Noto Sans CJK JP" font-size="12" lengthAdjust="spacing" textLength="60" x="21" y="410.1768">&#35352;&#37682;&#12364;&#30906;&#23450;</text><ellipse cx="51" cy="454.6329" fill="none" rx="11" ry="11" style="stroke:#222222;stroke-width:1.0;"/><ellipse cx="51" cy="454.6329" fill="#222222" rx="6" ry="6" style="stroke:#222222;stroke-width:1.0;"/><rect fill="#F1F1F1" height="37.3761" rx="12.5" ry="12.5" style="stroke:#181818;stroke-width:0.5;" width="176" x="111" y="386.2567"/><text fill="#000000" font-family="Noto Sans CJK JP" font-size="12" lengthAdjust="spacing" textLength="156" x="121" y="410.1768">&#12510;&#12493;&#12540;&#12472;&#12515;&#12540;&#12398;&#20877;&#30331;&#37682;&#12364;&#24517;&#35201;</text><rect fill="#F1F1F1" height="37.3761" rx="12.5" ry="12.5" style="stroke:#181818;stroke-width:0.5;" width="176" x="317" y="277.5045"/><text fill="#000000" font-family="Noto Sans CJK JP" font-size="12" lengthAdjust="spacing" textLength="156" x="327" y="301.4246">&#12510;&#12493;&#12540;&#12472;&#12515;&#12540;&#12398;&#20877;&#30331;&#37682;&#12364;&#24517;&#35201;</text><polygon fill="#F1F1F1" points="265,475.6329,277,487.6329,265,499.6329,253,487.6329,265,475.6329" style="stroke:#181818;stroke-width:0.5;"/><polygon fill="#F1F1F1" points="265,50,277,62,265,74,253,62,265,50" style="stroke:#181818;stroke-width:0.5;"/><polygon fill="#F1F1F1" points="204.5,519.6329,325.5,519.6329,337.5,531.6329,325.5,543.6329,204.5,543.6329,192.5,531.6329,204.5,519.6329" style="stroke:#181818;stroke-width:0.5;"/><text fill="#000000" font-family="Noto Sans CJK JP" font-size="11" lengthAdjust="spacing" textLength="121" x="204.5" y="536.4288">&#20877;&#30331;&#37682;&#12398;&#24046;&#12375;&#25147;&#12375;&#12364;&#12354;&#12427;</text><line style="stroke:#181818;stroke-width:1.0;" x1="265" x2="265" y1="148.7522" y2="168.7522"/><polygon fill="#181818" points="261,158.7522,265,168.7522,269,158.7522,265,162.7522" style="stroke:#181818;stroke-width:1.0;"/><line style="stroke:#181818;stroke-width:1.0;" x1="51" x2="51" y1="423.6329" y2="443.6329"/><polygon fill="#181818" points="47,433.6329,51,443.6329,55,433.6329,51,437.6329" style="stroke:#181818;stroke-width:1.0;"/><line style="stroke:#181818;stroke-width:1.0;" x1="77.5" x2="51" y1="364.2567" y2="364.2567"/><line style="stroke:#181818;stroke-width:1.0;" x1="51" x2="51" y1="364.2567" y2="386.2567"/><polygon fill="#181818" points="47,376.2567,51,386.2567,55,376.2567,51,380.2567" style="stroke:#181818;stroke-width:1.0;"/><line style="stroke:#181818;stroke-width:1.0;" x1="172.5" x2="199" y1="364.2567" y2="364.2567"/><line style="stroke:#181818;stroke-width:1.0;" x1="199" x2="199" y1="364.2567" y2="386.2567"/><polygon fill="#181818" points="195,376.2567,199,386.2567,203,376.2567,199,380.2567" style="stroke:#181818;stroke-width:1.0;"/><line style="stroke:#181818;stroke-width:1.0;" x1="199" x2="199" y1="423.6329" y2="487.6329"/><line style="stroke:#181818;stroke-width:1.0;" x1="199" x2="253" y1="487.6329" y2="487.6329"/><polygon fill="#181818" points="243,483.6329,253,487.6329,243,491.6329,247,487.6329" style="stroke:#181818;stroke-width:1.0;"/><line style="stroke:#181818;stroke-width:1.0;" x1="125" x2="125" y1="332.2567" y2="352.2567"/><polygon fill="#181818" points="121,342.2567,125,352.2567,129,342.2567,125,346.2567" style="stroke:#181818;stroke-width:1.0;"/><line style="stroke:#181818;stroke-width:1.0;" x1="223" x2="125" y1="255.5045" y2="255.5045"/><line style="stroke:#181818;stroke-width:1.0;" x1="125" x2="125" y1="255.5045" y2="277.5045"/><polygon fill="#181818" points="121,267.5045,125,277.5045,129,267.5045,125,271.5045" style="stroke:#181818;stroke-width:1.0;"/><line style="stroke:#181818;stroke-width:1.0;" x1="307" x2="405" y1="255.5045" y2="255.5045"/><line style="stroke:#181818;stroke-width:1.0;" x1="405" x2="405" y1="255.5045" y2="277.5045"/><polygon fill="#181818" points="401,267.5045,405,277.5045,409,267.5045,405,271.5045" style="stroke:#181818;stroke-width:1.0;"/><line style="stroke:#181818;stroke-width:1.0;" x1="405" x2="405" y1="314.8806" y2="487.6329"/><line style="stroke:#181818;stroke-width:1.0;" x1="405" x2="277" y1="487.6329" y2="487.6329"/><polygon fill="#181818" points="287,483.6329,277,487.6329,287,491.6329,283,487.6329" style="stroke:#181818;stroke-width:1.0;"/><line style="stroke:#181818;stroke-width:1.0;" x1="265" x2="265" y1="223.5045" y2="243.5045"/><polygon fill="#181818" points="261,233.5045,265,243.5045,269,233.5045,265,237.5045" style="stroke:#181818;stroke-width:1.0;"/><line style="stroke:#181818;stroke-width:1.0;" x1="265" x2="265" y1="74" y2="94"/><polygon fill="#181818" points="261,84,265,94,269,84,265,88" style="stroke:#181818;stroke-width:1.0;"/><line style="stroke:#181818;stroke-width:1.0;" x1="337.5" x2="507" y1="531.6329" y2="531.6329"/><polygon fill="#181818" points="503,307.8164,507,297.8164,511,307.8164,507,303.8164" style="stroke:#181818;stroke-width:1.0;"/><line style="stroke:#181818;stroke-width:1.0;" x1="507" x2="507" y1="62" y2="531.6329"/><line style="stroke:#181818;stroke-width:1.0;" x1="507" x2="277" y1="62" y2="62"/><polygon fill="#181818" points="287,58,277,62,287,66,283,62" style="stroke:#181818;stroke-width:1.0;"/><line style="stroke:#181818;stroke-width:1.0;" x1="265" x2="265" y1="499.6329" y2="519.6329"/><polygon fill="#181818" points="261,509.6329,265,519.6329,269,509.6329,265,513.6329" style="stroke:#181818;stroke-width:1.0;"/><line style="stroke:#181818;stroke-width:1.0;" x1="265" x2="265" y1="30" y2="50"/><polygon fill="#181818" points="261,40,265,50,269,40,265,44" style="stroke:#181818;stroke-width:1.0;"/><!--SRC=[bP7VIW915CRlvoa6h_GLygABe0i32RhrPi4HbtHMt8bkcrqDgnMYaDB2q32aFoiLaMZamnncTtsBPfoCXVv0C0p3uVj-tpbpx6sJLeogKSPvKZ1sIcpTeYnhb0bEP2rcuIs3sdWjiu4pcmc4R6PK6K9LKY46GnYlWDi5jmdk6pXZSA_LWtl1-5xudMXuFlUUmfVZe7i9pece3yJXHOu61xFeLZfQu3veUTYUH3qFU0iS3voZjE9g171VZDwZnzxS7OhJ7l2x-Ludl1hawBBWwHJ93_iJoKqZwJOBEBaK-3flDOLPaL2S13u2Naj9bUhUULOjk3n6ZjM-mvLBqMEYlm9an2T2JjcVo8dIdtMRMPN5avHieaornMby-NxwM5_iDyFsLFF4h1xTSCqZD6yMq2-m_w0qIAyNxnRDaiJ5bBvuzO6V1OsflAKHk2CNba8V]--></g></svg>