<?xml version="1.0" encoding="us-ascii" standalone="no"?><svg xmlns="http://www.w3.org/2000/svg" xmlns:xlink="http://www.w3.org/1999/xlink" contentStyleType="text/css" height="906px" preserveAspectRatio="none" style="width:596px;height:906px;background:#FFFFFF;" version="1.1" viewBox="0 0 596 906" width="596px" zoomAndPan="magnify"><defs/><g><!--class User--><g id="elem_User"><rect codeLine="2" fill="#F1F1F1" height="189.9034" id="User" rx="2.5" ry="2.5" style="stroke:#181818;stroke-width:0.5;" width="282" x="175" y="7"/><ellipse cx="255.75" cy="23" fill="#ADD1B2" rx="11" ry="11" style="stroke:#181818;stroke-width:1.0;"/><path d="M259.8594,29 L252.1406,29 L252.1406,16.6094 L259.8594,16.6094 L259.8594,18.7656 L254.5938,18.7656 L254.5938,21.4375 L259.3594,21.4375 L259.3594,23.5938 L254.5938,23.5938 L254.5938,26.8438 L259.8594,26.8438 L259.8594,29 Z " fill="#000000"/><text fill="#000000" font-family="Noto Sans CJK JP" font-size="14" lengthAdjust="spacing" textLength="112" x="276.25" y="29.104">&#12518;&#12540;&#12470;&#12540;&#12510;&#12473;&#12479;&#12540;</text><line style="stroke:#181818;stroke-width:0.5;" x1="176" x2="456" y1="39" y2="39"/><ellipse cx="186" cy="54.636" fill="none" rx="3" ry="3" style="stroke:#038048;stroke-width:1.0;"/><text fill="#000000" font-family="Noto Sans CJK JP" font-size="14" lengthAdjust="spacing" textLength="105" x="195" y="59.2399">&#12518;&#12540;&#12470;&#12540;ID &#171;PK&#187;</text><ellipse cx="186" cy="74.9079" fill="none" rx="3" ry="3" style="stroke:#038048;stroke-width:1.0;"/><text fill="#000000" font-family="Noto Sans CJK JP" font-size="14" lengthAdjust="spacing" textLength="139" x="195" y="79.5118">&#12525;&#12464;&#12452;&#12531;&#21517; &#171;UNIQUE&#187;</text><ellipse cx="186" cy="95.1798" fill="none" rx="3" ry="3" style="stroke:#038048;stroke-width:1.0;"/><text fill="#000000" font-family="Noto Sans CJK JP" font-size="14" lengthAdjust="spacing" textLength="98" x="195" y="99.7838">&#12513;&#12540;&#12523;&#12450;&#12489;&#12524;&#12473;</text><ellipse cx="186" cy="115.4517" fill="none" rx="3" ry="3" style="stroke:#038048;stroke-width:1.0;"/><text fill="#000000" font-family="Noto Sans CJK JP" font-size="14" lengthAdjust="spacing" textLength="70" x="195" y="120.0557">&#12497;&#12473;&#12527;&#12540;&#12489;</text><ellipse cx="186" cy="135.7236" fill="none" rx="3" ry="3" style="stroke:#038048;stroke-width:1.0;"/><text fill="#000000" font-family="Noto Sans CJK JP" font-size="14" lengthAdjust="spacing" textLength="14" x="195" y="140.3276">&#22995;</text><ellipse cx="186" cy="155.9955" fill="none" rx="3" ry="3" style="stroke:#038048;stroke-width:1.0;"/><text fill="#000000" font-family="Noto Sans CJK JP" font-size="14" lengthAdjust="spacing" textLength="14" x="195" y="160.5995">&#21517;</text><ellipse cx="186" cy="176.2674" fill="none" rx="3" ry="3" style="stroke:#038048;stroke-width:1.0;"/><text fill="#000000" font-family="Noto Sans CJK JP" font-size="14" lengthAdjust="spacing" textLength="256" x="195" y="180.8714">&#12525;&#12540;&#12523; &#171;&#12510;&#12493;&#12540;&#12472;&#12515;&#12540;/&#37096;&#21729;/&#12467;&#12540;&#12481;/&#30435;&#30563;&#187;</text><line style="stroke:#181818;stroke-width:0.5;" x1="176" x2="456" y1="188.9034" y2="188.9034"/></g><!--class Measurement--><g id="elem_Measurement"><rect codeLine="12" fill="#F1F1F1" height="331.8068" id="Measurement" rx="2.5" ry="2.5" style="stroke:#181818;stroke-width:0.5;" width="394" x="7" y="277"/><ellipse cx="171.75" cy="293" fill="#ADD1B2" rx="11" ry="11" style="stroke:#181818;stroke-width:1.0;"/><path d="M175.8594,299 L168.1406,299 L168.1406,286.6094 L175.8594,286.6094 L175.8594,288.7656 L170.5938,288.7656 L170.5938,291.4375 L175.3594,291.4375 L175.3594,293.5938 L170.5938,293.5938 L170.5938,296.8438 L175.8594,296.8438 L175.8594,299 Z " fill="#000000"/><text fill="#000000" font-family="Noto Sans CJK JP" font-size="14" lengthAdjust="spacing" textLength="56" x="192.25" y="299.104">&#28204;&#23450;&#35352;&#37682;</text><line style="stroke:#181818;stroke-width:0.5;" x1="8" x2="400" y1="309" y2="309"/><ellipse cx="18" cy="324.636" fill="none" rx="3" ry="3" style="stroke:#038048;stroke-width:1.0;"/><text fill="#000000" font-family="Noto Sans CJK JP" font-size="14" lengthAdjust="spacing" textLength="105" x="27" y="329.2399">&#28204;&#23450;&#35352;&#37682;ID &#171;PK&#187;</text><ellipse cx="18" cy="344.9079" fill="none" rx="3" ry="3" style="stroke:#038048;stroke-width:1.0;"/><text fill="#000000" font-family="Noto Sans CJK JP" font-size="14" lengthAdjust="spacing" textLength="246" x="27" y="349.5118">&#12518;&#12540;&#12470;&#12540;ID &#171;FK&#187; -- &#28204;&#23450;&#23550;&#35937;&#32773;&#65288;&#37096;&#21729;&#65289;</text><ellipse cx="18" cy="365.1798" fill="none" rx="3" ry="3" style="stroke:#038048;stroke-width:1.0;"/><text fill="#000000" font-family="Noto Sans CJK JP" font-size="14" lengthAdjust="spacing" textLength="316" x="27" y="369.7838">&#20316;&#25104;&#32773;ID &#171;FK&#187; -- &#28204;&#23450;&#35352;&#37682;&#12434;&#30331;&#37682;&#12375;&#12383;&#12510;&#12493;&#12540;&#12472;&#12515;&#12540;</text><ellipse cx="18" cy="385.4517" fill="none" rx="3" ry="3" style="stroke:#038048;stroke-width:1.0;"/><text fill="#000000" font-family="Noto Sans CJK JP" font-size="14" lengthAdjust="spacing" textLength="42" x="27" y="390.0557">&#28204;&#23450;&#26085;</text><ellipse cx="18" cy="405.7236" fill="none" rx="3" ry="3" style="stroke:#038048;stroke-width:1.0;"/><text fill="#000000" font-family="Noto Sans CJK JP" font-size="14" lengthAdjust="spacing" textLength="85" x="27" y="410.3276">50m&#36208;&#65288;&#31186;&#65289;</text><ellipse cx="18" cy="425.9955" fill="none" rx="3" ry="3" style="stroke:#038048;stroke-width:1.0;"/><text fill="#000000" font-family="Noto Sans CJK JP" font-size="14" lengthAdjust="spacing" textLength="154" x="27" y="430.5995">&#12505;&#12540;&#12473;&#12521;&#12531;&#12491;&#12531;&#12464;&#65288;&#31186;&#65289;</text><ellipse cx="18" cy="446.2674" fill="none" rx="3" ry="3" style="stroke:#038048;stroke-width:1.0;"/><text fill="#000000" font-family="Noto Sans CJK JP" font-size="14" lengthAdjust="spacing" textLength="69" x="27" y="450.8714">&#36960;&#25237;&#65288;m&#65289;</text><ellipse cx="18" cy="466.5393" fill="none" rx="3" ry="3" style="stroke:#038048;stroke-width:1.0;"/><text fill="#000000" font-family="Noto Sans CJK JP" font-size="14" lengthAdjust="spacing" textLength="161" x="27" y="471.1433">&#12473;&#12488;&#12524;&#12540;&#12488;&#29699;&#36895;&#65288;km/h&#65289;</text><ellipse cx="18" cy="486.8112" fill="none" rx="3" ry="3" style="stroke:#038048;stroke-width:1.0;"/><text fill="#000000" font-family="Noto Sans CJK JP" font-size="14" lengthAdjust="spacing" textLength="119" x="27" y="491.4152">&#25171;&#29699;&#36895;&#24230;&#65288;km/h&#65289;</text><ellipse cx="18" cy="507.0832" fill="none" rx="3" ry="3" style="stroke:#038048;stroke-width:1.0;"/><text fill="#000000" font-family="Noto Sans CJK JP" font-size="14" lengthAdjust="spacing" textLength="147" x="27" y="511.6871">&#12473;&#12452;&#12531;&#12464;&#36895;&#24230;&#65288;km/h&#65289;</text><ellipse cx="18" cy="527.3551" fill="none" rx="3" ry="3" style="stroke:#038048;stroke-width:1.0;"/><text fill="#000000" font-family="Noto Sans CJK JP" font-size="14" lengthAdjust="spacing" textLength="128" x="27" y="531.959">&#12505;&#12531;&#12481;&#12503;&#12524;&#12473;&#65288;kg&#65289;</text><ellipse cx="18" cy="547.627" fill="none" rx="3" ry="3" style="stroke:#038048;stroke-width:1.0;"/><text fill="#000000" font-family="Noto Sans CJK JP" font-size="14" lengthAdjust="spacing" textLength="114" x="27" y="552.231">&#12473;&#12463;&#12527;&#12483;&#12488;&#65288;kg&#65289;</text><ellipse cx="18" cy="567.8989" fill="none" rx="3" ry="3" style="stroke:#038048;stroke-width:1.0;"/><text fill="#000000" font-family="Noto Sans CJK JP" font-size="14" lengthAdjust="spacing" textLength="368" x="27" y="572.5029">&#12473;&#12486;&#12540;&#12479;&#12473; &#171;&#25215;&#35469;&#24453;&#12385;/&#37096;&#21729;&#25215;&#35469;&#28168;&#12415;/&#12467;&#12540;&#12481;&#25215;&#35469;&#28168;&#12415;/&#21542;&#35469;&#187;</text><ellipse cx="18" cy="588.1708" fill="none" rx="3" ry="3" style="stroke:#038048;stroke-width:1.0;"/><text fill="#000000" font-family="Noto Sans CJK JP" font-size="14" lengthAdjust="spacing" textLength="70" x="27" y="592.7748">&#20877;&#20316;&#25104;&#26085;&#26178;</text><line style="stroke:#181818;stroke-width:0.5;" x1="8" x2="400" y1="600.8068" y2="600.8068"/></g><!--class MeasurementApproval--><g id="elem_MeasurementApproval"><rect codeLine="29" fill="#F1F1F1" height="210.1753" id="MeasurementApproval" rx="2.5" ry="2.5" style="stroke:#181818;stroke-width:0.5;" width="496" x="90" y="689"/><ellipse cx="305.75" cy="705" fill="#ADD1B2" rx="11" ry="11" style="stroke:#181818;stroke-width:1.0;"/><path d="M309.8594,711 L302.1406,711 L302.1406,698.6094 L309.8594,698.6094 L309.8594,700.7656 L304.5938,700.7656 L304.5938,703.4375 L309.3594,703.4375 L309.3594,705.5938 L304.5938,705.5938 L304.5938,708.8438 L309.8594,708.8438 L309.8594,711 Z " fill="#000000"/><text fill="#000000" font-family="Noto Sans CJK JP" font-size="14" lengthAdjust="spacing" textLength="56" x="326.25" y="711.104">&#25215;&#35469;&#23653;&#27508;</text><line style="stroke:#181818;stroke-width:0.5;" x1="91" x2="585" y1="721" y2="721"/><ellipse cx="101" cy="736.636" fill="none" rx="3" ry="3" style="stroke:#038048;stroke-width:1.0;"/><text fill="#000000" font-family="Noto Sans CJK JP" font-size="14" lengthAdjust="spacing" textLength="105" x="110" y="741.2399">&#25215;&#35469;&#23653;&#27508;ID &#171;PK&#187;</text><ellipse cx="101" cy="756.9079" fill="none" rx="3" ry="3" style="stroke:#038048;stroke-width:1.0;"/><text fill="#000000" font-family="Noto Sans CJK JP" font-size="14" lengthAdjust="spacing" textLength="104" x="110" y="761.5118">&#28204;&#23450;&#35352;&#37682;ID &#171;FK&#187;</text><ellipse cx="101" cy="777.1798" fill="none" rx="3" ry="3" style="stroke:#038048;stroke-width:1.0;"/><text fill="#000000" font-family="Noto Sans CJK JP" font-size="14" lengthAdjust="spacing" textLength="470" x="110" y="781.7838">&#25215;&#35469;&#32773;ID &#171;FK&#187; -- &#28204;&#23450;&#35352;&#37682;&#12434;&#25215;&#35469;&#12539;&#21542;&#35469;&#12377;&#12427;&#12518;&#12540;&#12470;&#12540;&#65288;&#37096;&#21729;&#12362;&#12424;&#12403;&#12467;&#12540;&#12481;&#65289;</text><ellipse cx="101" cy="797.4517" fill="none" rx="3" ry="3" style="stroke:#038048;stroke-width:1.0;"/><text fill="#000000" font-family="Noto Sans CJK JP" font-size="14" lengthAdjust="spacing" textLength="190" x="110" y="802.0557">&#25215;&#35469;&#32773;&#12398;&#12525;&#12540;&#12523; &#171;&#37096;&#21729;/&#12467;&#12540;&#12481;&#187;</text><ellipse cx="101" cy="817.7236" fill="none" rx="3" ry="3" style="stroke:#038048;stroke-width:1.0;"/><text fill="#000000" font-family="Noto Sans CJK JP" font-size="14" lengthAdjust="spacing" textLength="316" x="110" y="822.3276">&#25215;&#35469;&#12473;&#12486;&#12483;&#12503; &#171;&#37096;&#21729;&#12395;&#12424;&#12427;&#25215;&#35469;/&#12467;&#12540;&#12481;&#12398;&#26368;&#32066;&#25215;&#35469;&#187;</text><ellipse cx="101" cy="837.9955" fill="none" rx="3" ry="3" style="stroke:#038048;stroke-width:1.0;"/><text fill="#000000" font-family="Noto Sans CJK JP" font-size="14" lengthAdjust="spacing" textLength="56" x="110" y="842.5995">&#25215;&#35469;&#26085;&#26178;</text><ellipse cx="101" cy="858.2674" fill="none" rx="3" ry="3" style="stroke:#038048;stroke-width:1.0;"/><text fill="#000000" font-family="Noto Sans CJK JP" font-size="14" lengthAdjust="spacing" textLength="176" x="110" y="862.8714">&#25215;&#35469;&#12473;&#12486;&#12540;&#12479;&#12473; &#171;&#25215;&#35469;/&#21542;&#35469;&#187;</text><ellipse cx="101" cy="878.5393" fill="none" rx="3" ry="3" style="stroke:#038048;stroke-width:1.0;"/><text fill="#000000" font-family="Noto Sans CJK JP" font-size="14" lengthAdjust="spacing" textLength="56" x="110" y="883.1433">&#12467;&#12513;&#12531;&#12488;</text><line style="stroke:#181818;stroke-width:0.5;" x1="91" x2="585" y1="891.1753" y2="891.1753"/></g><!--link User to Measurement--><g id="link_User_Measurement"><path codeLine="40" d="M168.8804,188.4928 C155.4604,201.5228 149.47,210.63 141,227 C132.87,242.72 129.4526,241.6508 129.6126,258.8508 " fill="none" id="User-Measurement" style="stroke:#181818;stroke-width:1.0;"/><line style="stroke:#181818;stroke-width:1.0;" x1="168.9638" x2="174.5366" y1="182.8366" y2="188.5762"/><line style="stroke:#181818;stroke-width:1.0;" x1="166.8114" x2="172.3842" y1="184.9264" y2="190.6661"/><line style="stroke:#181818;stroke-width:1.0;" x1="168.8804" x2="174.62" y1="188.4928" y2="182.92"/><line style="stroke:#181818;stroke-width:1.0;" x1="129.7056" x2="135.7797" y1="268.8503" y2="276.7942"/><line style="stroke:#181818;stroke-width:1.0;" x1="129.7056" x2="123.7803" y1="268.8503" y2="276.9058"/><line style="stroke:#181818;stroke-width:1.0;" x1="129.7056" x2="129.78" y1="268.8503" y2="276.85"/><ellipse cx="129.6498" cy="262.8506" fill="none" rx="4" ry="4" style="stroke:#181818;stroke-width:1.0;"/><text fill="#000000" font-family="Noto Sans CJK JP" font-size="13" lengthAdjust="spacing" textLength="130" x="142" y="243.08">&#23550;&#35937;&#32773;&#65288;&#12518;&#12540;&#12470;&#12540;ID&#65289;</text></g><!--link User to Measurement--><g id="link_User_Measurement"><path codeLine="41" d="M289.7255,204.8044 C285.0555,221.5044 282.16,230.97 277,247 C273.84,256.81 276.3537,249.8319 272.8737,259.9319 " fill="none" id="User-Measurement-1" style="stroke:#181818;stroke-width:1.0;"/><line style="stroke:#181818;stroke-width:1.0;" x1="286.9505" x2="294.655" y1="199.875" y2="202.0295"/><line style="stroke:#181818;stroke-width:1.0;" x1="286.1426" x2="293.8471" y1="202.7641" y2="204.9186"/><line style="stroke:#181818;stroke-width:1.0;" x1="289.7255" x2="291.88" y1="204.8044" y2="197.1"/><line style="stroke:#181818;stroke-width:1.0;" x1="269.6161" x2="272.6827" y1="269.3864" y2="278.9046"/><line style="stroke:#181818;stroke-width:1.0;" x1="269.6161" x2="261.3373" y1="269.3864" y2="274.9954"/><line style="stroke:#181818;stroke-width:1.0;" x1="269.6161" x2="267.01" y1="269.3864" y2="276.95"/><ellipse cx="271.5706" cy="263.7137" fill="none" rx="4" ry="4" style="stroke:#181818;stroke-width:1.0;"/><text fill="#000000" font-family="Noto Sans CJK JP" font-size="13" lengthAdjust="spacing" textLength="130" x="284" y="243.08">&#20316;&#25104;&#32773;&#65288;&#12518;&#12540;&#12470;&#12540;ID&#65289;</text></g><!--link Measurement to MeasurementApproval--><g id="link_Measurement_MeasurementApproval"><path codeLine="43" d="M270.2389,616.5179 C280.6689,643.6679 285.4722,656.1917 295.1222,681.3217 " fill="none" id="Measurement-MeasurementApproval" style="stroke:#181818;stroke-width:1.0;"/><line style="stroke:#181818;stroke-width:1.0;" x1="265.0705" x2="272.5384" y1="614.2184" y2="611.3495"/><line style="stroke:#181818;stroke-width:1.0;" x1="266.1463" x2="273.6142" y1="617.0189" y2="614.15"/><line style="stroke:#181818;stroke-width:1.0;" x1="270.2389" x2="267.37" y1="616.5179" y2="609.05"/><line style="stroke:#181818;stroke-width:1.0;" x1="295.1222" x2="303.5912" y1="681.3217" y2="686.6391"/><line style="stroke:#181818;stroke-width:1.0;" x1="295.1222" x2="292.3888" y1="681.3217" y2="690.9409"/><line style="stroke:#181818;stroke-width:1.0;" x1="295.1222" x2="297.99" y1="681.3217" y2="688.79"/><line style="stroke:#181818;stroke-width:1.0;" x1="298.1393" x2="290.671" y1="678.0207" y2="680.8886"/><text fill="#000000" font-family="Noto Sans CJK JP" font-size="13" lengthAdjust="spacing" textLength="65" x="284" y="655.08">&#28204;&#23450;&#35352;&#37682;ID</text></g><!--link User to MeasurementApproval--><g id="link_User_MeasurementApproval"><path codeLine="44" d="M412.4095,204.0191 C418.2995,213.5691 419.18,216.74 423,227 C482.17,386.14 454.87,443.05 419,609 C413.21,635.78 406.504,656.0837 395.614,681.5637 " fill="none" id="User-MeasurementApproval" style="stroke:#181818;stroke-width:1.0;"/><line style="stroke:#181818;stroke-width:1.0;" x1="406.9052" x2="413.7143" y1="202.7143" y2="198.5148"/><line style="stroke:#181818;stroke-width:1.0;" x1="408.48" x2="415.2891" y1="205.2677" y2="201.0682"/><line style="stroke:#181818;stroke-width:1.0;" x1="412.4095" x2="408.21" y1="204.0191" y2="197.21"/><line style="stroke:#181818;stroke-width:1.0;" x1="395.614" x2="397.9872" y1="681.5637" y2="691.278"/><line style="stroke:#181818;stroke-width:1.0;" x1="395.614" x2="386.9528" y1="681.5637" y2="686.562"/><line style="stroke:#181818;stroke-width:1.0;" x1="395.614" x2="392.47" y1="681.5637" y2="688.92"/><line style="stroke:#181818;stroke-width:1.0;" x1="400.0782" x2="392.7219" y1="681.2967" y2="678.1526"/><text fill="#000000" font-family="Noto Sans CJK JP" font-size="13" lengthAdjust="spacing" textLength="130" x="458" y="449.08">&#25215;&#35469;&#32773;&#65288;&#12518;&#12540;&#12470;&#12540;ID&#65289;</text></g><!--SRC=[XLJTRX9H4BxdAKwuDGHll6cQ9aPjqZQI6iC3REAgJRj0W9eOC67FIPkbI88b1j5gHLfQxG-jM8CMoyECkmjNVGNddBCikmkDDxjdppSptynyCvjPNKcabBIYaIVgKsLzBJkVJ6HZYgQIS2oPJPB7IY93xYqkaSNbS4XDP5UoBqaOM0jO3-XF_cIVWFu2siTpc2WP4i-eQP8B4NBBQxPmdypEBY_DpKdW1EWPq3rW7RDIHYGUMtWKVp126oBk4T0lm8h0Zf500cyu5MiBkCYlY7bGbUzAUHHP-69CdXahYmowm9fuY0xPeLbjH85sX9KUjJyqxOzDv7qLSgkpkiVcwVl1uRlXw- -YeeUgabbFgneQoCAy5e720XNF8q0Y4I8zpFRLuBmnA6nSzmoPodLFbF7tpuvbL12OuYHfW6xRzKj-q6kWxqxMDixBgktpZpktjS756JBP1ziE3R2wSC4UViNM0oln9_KR3VNFrjPRlD96NjpUu3BmdXbsXGqBkuYlQj7dZebLhCfhytVBZuZPs9CqKt6U4cQY0wj9fJd-pElT5eepf0v2R5EKqySpjiqgzWVVokRL1kWDHsbvPNKDqFjZrNstPgM57r8-SxCibS0MMdNg6meP_7pVElaH78gxgLGw-K9PSuR3O-aRZecf4JgFNVuZlpG2TYap1hqEjEGTE7UeGDy2YiLrt8fTcHmUq4-zcn9S2oTVIUZq6VjVSqr1F-8Cj2HjnfuOsDefs1TK0jv0Jayd0WS5z2aY0ZV4X1XS3l5poUSZaMJEjvOpnBjR_ZNanT_ivwxULB-GrvZxvtDJbPyXVdN7X3SxZCIOIlmF]--></g></svg>